<?xml version="1.0" encoding="UTF-8"?>
<svg id="Capa_1" data-name="Capa 1" xmlns="http://www.w3.org/2000/svg" viewBox="0 0 123.276 123.285">
  <defs>
    <style>
      .cls-1 {
        opacity: .98;
      }

      .cls-2 {
        fill: #1d1d1b;
        stroke-width: 0px;
      }
    </style>
  </defs>
  <g class="cls-1">
    <g>
      <path class="cls-2" d="M67.007,103.911h-14.906v-5.733h-.2c-1.894,2.326-4.113,4.071-6.655,5.234-2.543,1.162-5.393,1.745-8.55,1.745-4.321,0-8.06-1.338-11.217-4.014-3.158-2.674-4.736-6.356-4.736-11.043,0-4.553,1.512-8.367,4.536-11.44s7.478-4.927,13.361-5.559l13.56-1.446v-1.545c0-2.493-.79-4.369-2.368-5.634-1.579-1.263-3.548-1.893-5.908-1.893s-4.437.548-6.232,1.644c-1.794,1.098-3.424,2.725-4.885,4.886l-10.519-6.281c1.827-2.925,4.752-5.526,8.775-7.802,4.021-2.276,8.774-3.415,14.257-3.415,7.046,0,12.422,1.811,16.128,5.432,3.705,3.623,5.559,9.074,5.559,16.352v30.511ZM52.201,83.171v-1.943l-10.17.997c-2.361.266-4.08.922-5.16,1.968s-1.62,2.467-1.62,4.263c0,1.595.598,2.916,1.795,3.963,1.196,1.047,2.708,1.571,4.536,1.571,3.124,0,5.675-1.023,7.653-3.066,1.977-2.044,2.966-4.628,2.966-7.753Z"/>
      <path class="cls-2" d="M85.338,99.175h-.199v4.736h-15.754V0h15.754v58.943h.199c1.995-2.46,4.404-4.294,7.229-5.509,2.824-1.211,6.081-1.818,9.771-1.818,6.714,0,11.881,2.26,15.505,6.78,3.622,4.52,5.433,10.702,5.433,18.544,0,8.51-2.119,15.339-6.356,20.491-4.237,5.152-9.879,7.727-16.925,7.727-3.224,0-6.056-.499-8.5-1.496s-4.495-2.493-6.157-4.487ZM84.89,76.441v5.234c0,3.226.997,5.892,2.991,8.002,1.994,2.111,4.569,3.165,7.727,3.165,3.656,0,6.489-1.362,8.5-4.087s3.017-6.598,3.017-11.616c0-4.153-.915-7.403-2.742-9.745-1.828-2.344-4.471-3.515-7.927-3.515-3.291,0-6.041,1.164-8.25,3.49-2.211,2.326-3.316,5.352-3.316,9.072Z"/>
    </g>
  </g>
  <path class="cls-2" d="M123.276,123.285H0V0h16.102v109.724h107.174v13.561Z"/>
</svg>